<?xml version="1.0" encoding="UTF-8" standalone="no"?>
<!-- Created with Inkscape (http://www.inkscape.org/) -->

<svg
   xmlns:dc="http://purl.org/dc/elements/1.1/"
   xmlns:cc="http://creativecommons.org/ns#"
   xmlns:rdf="http://www.w3.org/1999/02/22-rdf-syntax-ns#"
   xmlns:svg="http://www.w3.org/2000/svg"
   xmlns="http://www.w3.org/2000/svg"
   version="1.1"
   width="386.69479"
   height="185"
   id="svg3199">
  <metadata
     id="metadata3205">
    <rdf:RDF>
      <cc:Work
         rdf:about="">
        <dc:format>image/svg+xml</dc:format>
        <dc:type
           rdf:resource="http://purl.org/dc/dcmitype/StillImage" />
        <dc:title></dc:title>
      </cc:Work>
    </rdf:RDF>
  </metadata>
  <defs
     id="defs3203" />
  <path
     d="m 86.248864,180.93307 c -5.103786,-5.25096 -13.1152,-10.05512 -22.146188,-13.28027 -7.331531,-2.61824 -12.572074,-3.52507 -26.55676,-4.5954 -2.221523,-0.17002 -0.159067,-2.00668 4,-3.56207 2.6125,-0.97702 5.2,-2.11105 5.75,-2.52007 3.161246,-2.35095 47.369809,-11.76358 65.410064,-13.92673 5.17553,-0.62059 9.70851,-1.31279 10.07329,-1.53824 0.56205,-0.34737 25.557,-2.09887 56.59571,-3.96591 10.92348,-0.65707 84.16754,-2.44454 92.92094,-2.26768 22.7419,0.45951 54.39282,-2.91639 73.78278,-7.86971 16.29567,-4.16285 31.88171,-12.40641 35.43178,-18.74009 1.96646,-3.50835 1.54259,-8.07999 -0.96456,-10.403156 -4.79099,-4.4394 -10.19839,-3.2116 -29.9717,6.805366 -25.21666,12.77451 -35.82564,13.47516 -41.38068,2.73291 -0.76869,-1.48648 -1.39762,-3.85005 -1.39762,-5.25236 0,-3.239686 -0.49559,-3.199726 -4.55854,0.3676 -6.9505,6.10261 -20.76314,12.87858 -29.45521,14.44963 -4.58514,0.82874 -10.11601,-2.02054 -11.10573,-5.72123 -1.34788,-5.03994 2.33688,-13.774746 15.03032,-35.629653 C 284.59308,64.159504 285.11419,62 281.08894,62 c -3.84041,0 -13.87469,10.615268 -17.96011,19 -1.7419,3.575 -5.97375,12.350004 -9.40411,19.5 -10.01009,20.86434 -9.01011,19.79654 -19.93243,21.28408 -5.10485,0.69524 -9.46994,1.07568 -9.70019,0.84543 -0.44409,-0.44409 7.88465,-17.09874 14.81727,-29.629506 6.88309,-12.441229 12.88655,-24.770696 12.88655,-26.465449 0,-4.01211 -6.68276,-2.082048 -11.13088,3.214732 -7.36872,8.774596 -18.71389,27.469927 -29.13143,48.004683 -2.55721,5.0407 -4.97574,8.51069 -6.21252,8.9134 -2.45493,0.79938 -18.94223,4.16798 -19.22879,3.92873 -0.11199,-0.0935 2.61446,-5.10337 6.05878,-11.13305 C 195.59539,113.43337 200.24249,105.125 202.47795,101 207.76644,91.24138 211.36329,84.700074 214.9169,78.378273 218.00832,72.878697 218.6348,69 216.43166,69 c -1.64676,0 -9.98809,8.085668 -17.01164,16.490229 -20.52608,24.562011 -25.22098,29.868681 -32.38889,36.609301 -9.41041,8.84944 -13.56945,11.11094 -21.53782,11.71129 -5.77441,0.43505 -5.82346,0.41541 -10.09419,-4.04178 -3.36117,-3.5079 -4.42892,-5.48089 -4.92504,-9.10046 -0.3484,-2.54184 -0.37036,-5.30711 -0.0488,-6.14505 0.32155,-0.83794 0.37952,-1.52353 0.12881,-1.52353 -0.2507,0 -5.15604,4.70022 -10.90076,10.44493 -14.86458,14.86459 -25.318835,19.38022 -35.139513,15.17823 C 80.192735,136.77429 76.158914,132.2221 75.321887,128.25 74.945213,126.4625 74.30378,125 73.896479,125 c -0.4073,0 -2.509045,1.51366 -4.670544,3.36368 -6.196132,5.30326 -13.186601,9.39283 -21.887106,12.8044 -7.020715,2.7529 -9.313801,3.16503 -18.042893,3.24281 C 17.676584,144.51443 14.209114,143.2553 7.4215443,136.46774 0.78377393,129.82996 -1.2266961,119.77199 0.69395393,102.81088 1.9540339,91.68318 7.4359543,74.912199 13.157294,64.68149 22.948441,47.173288 38.312655,30.522344 54.811957,19.538313 65.636554,12.332087 72.537785,9.2163207 85.295916,5.7754247 c 10.991799,-2.964512 34.685404,-3.217702 41.500004,-0.443469 7.8927,3.213126 8.27101,3.168023 10.77986,-1.285199 L 139.85564,0 152.32578,0 c 6.85858,0 12.47014,0.262941 12.47014,0.584314 0,0.321373 -6.47531,11.908873 -14.38957,25.75 C 134.23392,54.617998 123.70463,73.446376 117.03983,86 c -2.48199,4.675 -5.96883,10.975004 -7.74853,14 -6.93745,11.79176 -12.495385,23.05306 -12.495385,25.31778 0,1.30473 0.85908,3.1497 1.90907,4.09993 1.733755,1.56902 2.176585,1.58936 4.821825,0.22145 6.61111,-3.41873 27.96664,-27.43482 31.29027,-35.188516 3.48443,-8.128854 10.55269,-17.778137 18.78198,-25.640356 6.43365,-6.146669 9.02358,-7.905867 14.22545,-9.662567 7.19134,-2.428552 18.982,-2.883674 22.87501,-0.882979 8.82386,4.534756 8.13925,16.454804 -1.23244,21.458605 -5.21862,2.786361 -8.89392,2.732888 -11.62017,-0.169065 C 173.1425,74.546659 176.20943,67 182.94893,67 c 2.18032,0 2.84699,-0.468331 2.84699,-2 0,-6.755029 -14.53092,3.688851 -23.65268,17 -4.97538,7.26045 -10.35823,18.72077 -11.52734,24.54219 -0.92086,4.58529 -0.83444,5.7868 0.57043,7.93089 4.35065,6.63994 10.90549,2.16911 40.81268,-27.83698 30.30278,-30.40297 39.73132,-36.786009 45.28035,-30.654394 1.40899,1.55691 1.66036,2.9525 1.17268,6.510541 l -0.62075,4.528835 6.63147,-5.62565 c 11.34856,-9.62728 21.43374,-12.891505 25.46586,-8.242422 1.02702,1.184155 1.8673,2.957597 1.8673,3.940983 0,3.097593 1.50288,2.922049 7.06774,-0.825553 13.33695,-8.981623 23.91533,-9.603107 25.5359,-1.500245 0.84852,4.242588 -0.59281,8.113695 -10.73897,28.842599 -8.77141,17.920256 -9.77792,20.706756 -7.89897,21.868006 1.55487,0.96096 8.36546,-3.00793 15.39488,-8.971416 5.65286,-4.795674 7.13197,-6.815764 11.05634,-15.100182 4.03762,-8.523504 5.6483,-10.672372 14.80676,-19.754174 11.37256,-11.277373 18.30085,-15.438834 27.23961,-16.361395 6.72638,-0.694223 11.67422,0.962014 15.33726,5.133987 5.69418,6.485308 4.77383,15.56013 -2.21599,21.850107 -6.80897,6.127242 -19.48349,10.235933 -29.44643,9.545634 -4.50344,-0.312029 -4.69288,-0.209246 -6.52347,3.53953 -2.54863,5.219229 -3.23581,12.109963 -1.52623,15.304339 1.23938,2.31581 1.81472,2.50596 6.38682,2.11091 3.34706,-0.2892 8.68939,-2.19137 16.00047,-5.697066 17.4959,-8.389364 25.52979,-8.614964 32.02217,-0.89921 2.42913,2.88686 2.67717,3.835016 2.2036,8.423506 -0.64705,6.26931 -3.80873,11.55893 -10.35898,17.33102 -6.85586,6.04141 -11.51621,8.54861 -24.17919,13.00809 -26.47049,9.32204 -60.12899,13.13853 -141.52614,16.04745 -15.87455,0.56732 -29.14955,1.20352 -29.5,1.41378 -0.35045,0.21026 -7.16218,1.3572 -15.13718,2.54876 -18.04071,2.69549 -23.31272,4.01348 -39,9.74992 -15.9384,5.82826 -24.73103,10.35117 -30.893005,15.89132 C 93.207442,183.01717 90.822002,185 90.601934,185 c -0.220067,0 -2.178949,-1.83012 -4.35307,-4.06693 z m -37.38047,-51.86861 c 11.156131,-4.239 23.581372,-13.36499 30.049859,-22.07079 1.427703,-1.92152 5.876453,-9.793666 9.88611,-17.49367 7.587862,-14.571463 13.515477,-25.240154 30.123557,-54.217317 5.4274,-9.469524 9.868,-17.63075 9.868,-18.136058 0,-0.505308 -1.6875,-1.757516 -3.75,-2.782684 -5.67867,-2.82259 -20.43887,-2.388969 -29.859055,0.877192 C 73.578704,22.733102 51.693749,47.454961 36.531392,81.5 29.589277,97.087594 27.456361,104.4585 27.41625,113 c -0.07281,15.50524 7.66806,21.302 21.452144,16.06446 z M 342.58576,74.077511 c 8.99342,-4.660107 17.21016,-13.336126 17.21016,-18.172125 0,-4.836434 -3.56118,-3.76988 -10.19721,3.05401 C 342.41848,66.342889 336.03563,76 338.33576,76 c 0.29691,0 2.20941,-0.86512 4.25,-1.922489 z"
     id="path3209"
     style="fill:#ffffff" />
</svg>
